<?xml version="1.0" standalone="no"?>
<!DOCTYPE svg PUBLIC "-//W3C//DTD SVG 20010904//EN"
 "http://www.w3.org/TR/2001/REC-SVG-20010904/DTD/svg10.dtd">
<svg version="1.0" xmlns="http://www.w3.org/2000/svg"
 width="512.000000pt" height="512.000000pt" viewBox="0 0 512.000000 512.000000"
 preserveAspectRatio="xMidYMid meet">
<metadata>
Created by potrace 1.14, written by Peter Selinger 2001-2017
</metadata>
<g transform="translate(0.000000,512.000000) scale(0.100000,-0.100000)"
fill="#000000" stroke="none">
<path d="M2378 5115 c-2 -1 -34 -5 -73 -9 -38 -3 -97 -10 -130 -16 -33 -6 -76
-13 -95 -16 -106 -17 -413 -105 -434 -125 -6 -5 -16 -9 -23 -9 -14 0 -93 -35
-223 -100 -336 -166 -658 -437 -891 -750 -232 -311 -399 -691 -464 -1055 -31
-174 -38 -259 -39 -445 -1 -296 19 -459 88 -710 90 -327 257 -660 452 -900
318 -390 696 -665 1134 -823 229 -83 378 -116 650 -146 73 -8 460 -6 510 3 14
2 48 7 75 11 88 12 277 53 365 78 549 162 1044 516 1371 982 237 337 396 741
444 1125 3 25 9 77 14 115 8 70 7 472 -2 510 -3 11 -8 45 -11 75 -45 360 -202
768 -417 1085 -131 193 -341 423 -499 545 -24 19 -53 43 -65 53 -52 47 -273
185 -395 247 -229 116 -500 208 -690 235 -24 4 -47 8 -50 10 -3 2 -37 6 -75
10 -39 4 -74 10 -79 13 -9 5 -442 12 -448 7z"/>
</g>
</svg>
